<mxfile host="app.diagrams.net" modified="2023-07-16T23:54:28.223Z" agent="Mozilla/5.0 (Windows NT 10.0; Win64; x64; rv:109.0) Gecko/20100101 Firefox/115.0" etag="6QrpPIUrdTNDNE8yiq6f" version="21.6.2" type="github">
  <diagram id="R2lEEEUBdFMjLlhIrx00" name="Page-1">
    <mxGraphModel dx="8" dy="464" grid="1" gridSize="10" guides="1" tooltips="1" connect="1" arrows="1" fold="1" page="1" pageScale="1" pageWidth="850" pageHeight="1100" math="0" shadow="0" extFonts="Permanent Marker^https://fonts.googleapis.com/css?family=Permanent+Marker">
      <root>
        <mxCell id="0" />
        <mxCell id="1" parent="0" />
        <mxCell id="c3nKSRqgcQVMaMpkJJOA-74" value="Visitante" style="rounded=1;arcSize=10;whiteSpace=wrap;html=1;align=center;" vertex="1" parent="1">
          <mxGeometry x="998.5" y="135" width="100" height="40" as="geometry" />
        </mxCell>
        <mxCell id="c3nKSRqgcQVMaMpkJJOA-77" value="&lt;div&gt;Miembro&lt;/div&gt;" style="rounded=1;arcSize=10;whiteSpace=wrap;html=1;align=center;" vertex="1" parent="1">
          <mxGeometry x="1166" y="70" width="100" height="40" as="geometry" />
        </mxCell>
        <mxCell id="c3nKSRqgcQVMaMpkJJOA-79" value="&lt;div&gt;Colaborador&lt;/div&gt;" style="rounded=1;arcSize=10;whiteSpace=wrap;html=1;align=center;" vertex="1" parent="1">
          <mxGeometry x="1336" y="135" width="100" height="40" as="geometry" />
        </mxCell>
        <mxCell id="c3nKSRqgcQVMaMpkJJOA-81" value="Articulos" style="rounded=1;arcSize=10;whiteSpace=wrap;html=1;align=center;" vertex="1" parent="1">
          <mxGeometry x="1191" y="363" width="100" height="40" as="geometry" />
        </mxCell>
        <mxCell id="c3nKSRqgcQVMaMpkJJOA-86" value="Comentarios" style="rounded=1;arcSize=10;whiteSpace=wrap;html=1;align=center;" vertex="1" parent="1">
          <mxGeometry x="1513" y="363" width="100" height="40" as="geometry" />
        </mxCell>
        <mxCell id="c3nKSRqgcQVMaMpkJJOA-88" value="leen" style="rhombus;whiteSpace=wrap;html=1;" vertex="1" parent="1">
          <mxGeometry x="1191" y="130" width="50" height="50" as="geometry" />
        </mxCell>
        <mxCell id="c3nKSRqgcQVMaMpkJJOA-93" value="" style="endArrow=none;html=1;rounded=0;exitX=0.5;exitY=1;exitDx=0;exitDy=0;entryX=0.25;entryY=0;entryDx=0;entryDy=0;" edge="1" parent="1" source="c3nKSRqgcQVMaMpkJJOA-88" target="c3nKSRqgcQVMaMpkJJOA-81">
          <mxGeometry width="50" height="50" relative="1" as="geometry">
            <mxPoint x="1341" y="90" as="sourcePoint" />
            <mxPoint x="1341" y="60" as="targetPoint" />
            <Array as="points" />
          </mxGeometry>
        </mxCell>
        <mxCell id="c3nKSRqgcQVMaMpkJJOA-98" value="Manipulan" style="rhombus;whiteSpace=wrap;html=1;" vertex="1" parent="1">
          <mxGeometry x="1528" y="110" width="70" height="70" as="geometry" />
        </mxCell>
        <mxCell id="c3nKSRqgcQVMaMpkJJOA-100" value="" style="endArrow=none;html=1;rounded=0;exitX=1;exitY=0.5;exitDx=0;exitDy=0;entryX=0;entryY=0.5;entryDx=0;entryDy=0;" edge="1" parent="1" source="c3nKSRqgcQVMaMpkJJOA-88" target="c3nKSRqgcQVMaMpkJJOA-79">
          <mxGeometry width="50" height="50" relative="1" as="geometry">
            <mxPoint x="1331" y="170" as="sourcePoint" />
            <mxPoint x="1381" y="120" as="targetPoint" />
          </mxGeometry>
        </mxCell>
        <mxCell id="c3nKSRqgcQVMaMpkJJOA-102" value="" style="endArrow=none;html=1;rounded=0;exitX=0;exitY=0.5;exitDx=0;exitDy=0;entryX=1;entryY=0.25;entryDx=0;entryDy=0;" edge="1" parent="1" source="c3nKSRqgcQVMaMpkJJOA-98" target="c3nKSRqgcQVMaMpkJJOA-79">
          <mxGeometry width="50" height="50" relative="1" as="geometry">
            <mxPoint x="1331" y="170" as="sourcePoint" />
            <mxPoint x="1381" y="120" as="targetPoint" />
          </mxGeometry>
        </mxCell>
        <mxCell id="c3nKSRqgcQVMaMpkJJOA-103" value="" style="endArrow=none;html=1;rounded=0;entryX=0.5;entryY=1;entryDx=0;entryDy=0;exitX=0.5;exitY=0;exitDx=0;exitDy=0;" edge="1" parent="1" source="c3nKSRqgcQVMaMpkJJOA-86" target="c3nKSRqgcQVMaMpkJJOA-98">
          <mxGeometry width="50" height="50" relative="1" as="geometry">
            <mxPoint x="1321" y="240" as="sourcePoint" />
            <mxPoint x="1371" y="190" as="targetPoint" />
          </mxGeometry>
        </mxCell>
        <mxCell id="c3nKSRqgcQVMaMpkJJOA-104" value="contiene" style="rhombus;whiteSpace=wrap;html=1;" vertex="1" parent="1">
          <mxGeometry x="1233.5" y="290" width="61" height="40" as="geometry" />
        </mxCell>
        <mxCell id="c3nKSRqgcQVMaMpkJJOA-106" value="maneja" style="rhombus;whiteSpace=wrap;html=1;" vertex="1" parent="1">
          <mxGeometry x="1331" y="190" width="60" height="60" as="geometry" />
        </mxCell>
        <mxCell id="c3nKSRqgcQVMaMpkJJOA-108" value="" style="endArrow=none;html=1;rounded=0;exitX=0.5;exitY=0;exitDx=0;exitDy=0;" edge="1" parent="1" source="c3nKSRqgcQVMaMpkJJOA-104" target="c3nKSRqgcQVMaMpkJJOA-126">
          <mxGeometry width="50" height="50" relative="1" as="geometry">
            <mxPoint x="1315" y="387" as="sourcePoint" />
            <mxPoint x="1261" y="240" as="targetPoint" />
            <Array as="points" />
          </mxGeometry>
        </mxCell>
        <mxCell id="c3nKSRqgcQVMaMpkJJOA-109" value="" style="endArrow=none;html=1;rounded=0;entryX=0;entryY=0.5;entryDx=0;entryDy=0;" edge="1" parent="1" source="c3nKSRqgcQVMaMpkJJOA-126" target="c3nKSRqgcQVMaMpkJJOA-106">
          <mxGeometry width="50" height="50" relative="1" as="geometry">
            <mxPoint x="1336" y="220" as="sourcePoint" />
            <mxPoint x="1401" y="281" as="targetPoint" />
            <Array as="points" />
          </mxGeometry>
        </mxCell>
        <mxCell id="c3nKSRqgcQVMaMpkJJOA-111" value="" style="endArrow=none;html=1;rounded=0;exitX=0;exitY=0.5;exitDx=0;exitDy=0;entryX=1;entryY=0.5;entryDx=0;entryDy=0;" edge="1" parent="1" source="c3nKSRqgcQVMaMpkJJOA-88" target="c3nKSRqgcQVMaMpkJJOA-74">
          <mxGeometry width="50" height="50" relative="1" as="geometry">
            <mxPoint x="1226" y="140" as="sourcePoint" />
            <mxPoint x="1261" y="70" as="targetPoint" />
          </mxGeometry>
        </mxCell>
        <mxCell id="c3nKSRqgcQVMaMpkJJOA-114" value="" style="endArrow=none;html=1;rounded=0;entryX=0.733;entryY=0.003;entryDx=0;entryDy=0;exitX=0.5;exitY=1;exitDx=0;exitDy=0;entryPerimeter=0;" edge="1" parent="1" source="c3nKSRqgcQVMaMpkJJOA-104" target="c3nKSRqgcQVMaMpkJJOA-81">
          <mxGeometry width="50" height="50" relative="1" as="geometry">
            <mxPoint x="1396" y="295" as="sourcePoint" />
            <mxPoint x="1396" y="270" as="targetPoint" />
            <Array as="points" />
          </mxGeometry>
        </mxCell>
        <mxCell id="c3nKSRqgcQVMaMpkJJOA-115" value="" style="endArrow=none;html=1;rounded=0;exitX=0.5;exitY=0;exitDx=0;exitDy=0;entryX=0.25;entryY=1;entryDx=0;entryDy=0;" edge="1" parent="1" source="c3nKSRqgcQVMaMpkJJOA-106" target="c3nKSRqgcQVMaMpkJJOA-79">
          <mxGeometry width="50" height="50" relative="1" as="geometry">
            <mxPoint x="1274" y="340" as="sourcePoint" />
            <mxPoint x="1276" y="373" as="targetPoint" />
            <Array as="points" />
          </mxGeometry>
        </mxCell>
        <mxCell id="c3nKSRqgcQVMaMpkJJOA-117" value="" style="endArrow=none;html=1;rounded=0;exitX=0.5;exitY=0;exitDx=0;exitDy=0;" edge="1" parent="1" source="c3nKSRqgcQVMaMpkJJOA-88" target="c3nKSRqgcQVMaMpkJJOA-77">
          <mxGeometry width="50" height="50" relative="1" as="geometry">
            <mxPoint x="1226" y="140" as="sourcePoint" />
            <mxPoint x="1226" y="70" as="targetPoint" />
          </mxGeometry>
        </mxCell>
        <mxCell id="c3nKSRqgcQVMaMpkJJOA-120" value="tiene" style="rhombus;whiteSpace=wrap;html=1;" vertex="1" parent="1">
          <mxGeometry x="1336" y="290" width="50" height="50" as="geometry" />
        </mxCell>
        <mxCell id="c3nKSRqgcQVMaMpkJJOA-121" value="" style="endArrow=none;html=1;rounded=0;entryX=0.5;entryY=1;entryDx=0;entryDy=0;exitX=1;exitY=0.25;exitDx=0;exitDy=0;" edge="1" parent="1" source="c3nKSRqgcQVMaMpkJJOA-81" target="c3nKSRqgcQVMaMpkJJOA-120">
          <mxGeometry width="50" height="50" relative="1" as="geometry">
            <mxPoint x="1274" y="290" as="sourcePoint" />
            <mxPoint x="1271" y="250" as="targetPoint" />
            <Array as="points">
              <mxPoint x="1361" y="373" />
            </Array>
          </mxGeometry>
        </mxCell>
        <mxCell id="c3nKSRqgcQVMaMpkJJOA-122" value="" style="endArrow=none;html=1;rounded=0;exitX=1;exitY=0.5;exitDx=0;exitDy=0;" edge="1" parent="1" source="c3nKSRqgcQVMaMpkJJOA-120" target="c3nKSRqgcQVMaMpkJJOA-123">
          <mxGeometry width="50" height="50" relative="1" as="geometry">
            <mxPoint x="1274" y="340" as="sourcePoint" />
            <mxPoint x="1411" y="300" as="targetPoint" />
            <Array as="points" />
          </mxGeometry>
        </mxCell>
        <mxCell id="c3nKSRqgcQVMaMpkJJOA-123" value="Fotos" style="shape=ext;margin=3;double=1;whiteSpace=wrap;html=1;align=center;" vertex="1" parent="1">
          <mxGeometry x="1431" y="300" width="60" height="30" as="geometry" />
        </mxCell>
        <mxCell id="c3nKSRqgcQVMaMpkJJOA-126" value="Categoria" style="shape=ext;margin=3;double=1;whiteSpace=wrap;html=1;align=center;" vertex="1" parent="1">
          <mxGeometry x="1230.5" y="202.5" width="67" height="35" as="geometry" />
        </mxCell>
        <mxCell id="c3nKSRqgcQVMaMpkJJOA-128" value="" style="endArrow=none;html=1;rounded=0;exitX=0.5;exitY=1;exitDx=0;exitDy=0;" edge="1" parent="1" source="c3nKSRqgcQVMaMpkJJOA-129" target="c3nKSRqgcQVMaMpkJJOA-123">
          <mxGeometry width="50" height="50" relative="1" as="geometry">
            <mxPoint x="1526" y="215" as="sourcePoint" />
            <mxPoint x="1586" y="135" as="targetPoint" />
            <Array as="points" />
          </mxGeometry>
        </mxCell>
        <mxCell id="c3nKSRqgcQVMaMpkJJOA-129" value="manipula" style="rhombus;whiteSpace=wrap;html=1;" vertex="1" parent="1">
          <mxGeometry x="1428.5" y="192.5" width="65" height="55" as="geometry" />
        </mxCell>
        <mxCell id="c3nKSRqgcQVMaMpkJJOA-132" value="" style="endArrow=none;html=1;rounded=0;exitX=0.5;exitY=0;exitDx=0;exitDy=0;entryX=1;entryY=0.75;entryDx=0;entryDy=0;" edge="1" parent="1" source="c3nKSRqgcQVMaMpkJJOA-129" target="c3nKSRqgcQVMaMpkJJOA-79">
          <mxGeometry width="50" height="50" relative="1" as="geometry">
            <mxPoint x="1471" y="255" as="sourcePoint" />
            <mxPoint x="1471" y="310" as="targetPoint" />
            <Array as="points">
              <mxPoint x="1461" y="165" />
            </Array>
          </mxGeometry>
        </mxCell>
        <mxCell id="c3nKSRqgcQVMaMpkJJOA-133" value="" style="endArrow=none;html=1;rounded=0;exitX=1;exitY=0.5;exitDx=0;exitDy=0;entryX=0.5;entryY=0;entryDx=0;entryDy=0;" edge="1" parent="1" source="c3nKSRqgcQVMaMpkJJOA-77" target="c3nKSRqgcQVMaMpkJJOA-98">
          <mxGeometry width="50" height="50" relative="1" as="geometry">
            <mxPoint x="1251" y="165" as="sourcePoint" />
            <mxPoint x="1346" y="165" as="targetPoint" />
            <Array as="points">
              <mxPoint x="1563" y="90" />
            </Array>
          </mxGeometry>
        </mxCell>
        <mxCell id="c3nKSRqgcQVMaMpkJJOA-134" value="Sistema" style="rounded=1;arcSize=10;whiteSpace=wrap;html=1;align=center;" vertex="1" parent="1">
          <mxGeometry x="1002" y="366.5" width="62" height="33" as="geometry" />
        </mxCell>
        <mxCell id="c3nKSRqgcQVMaMpkJJOA-135" value="" style="endArrow=none;html=1;rounded=0;" edge="1" parent="1" source="c3nKSRqgcQVMaMpkJJOA-94" target="c3nKSRqgcQVMaMpkJJOA-81">
          <mxGeometry width="50" height="50" relative="1" as="geometry">
            <mxPoint x="1226" y="190" as="sourcePoint" />
            <mxPoint x="1226" y="373" as="targetPoint" />
            <Array as="points" />
          </mxGeometry>
        </mxCell>
        <mxCell id="c3nKSRqgcQVMaMpkJJOA-136" value="" style="endArrow=none;html=1;rounded=0;" edge="1" parent="1" source="c3nKSRqgcQVMaMpkJJOA-134" target="c3nKSRqgcQVMaMpkJJOA-94">
          <mxGeometry width="50" height="50" relative="1" as="geometry">
            <mxPoint x="1051" y="383" as="sourcePoint" />
            <mxPoint x="1231" y="383" as="targetPoint" />
            <Array as="points" />
          </mxGeometry>
        </mxCell>
        <mxCell id="c3nKSRqgcQVMaMpkJJOA-94" value="maneja" style="rhombus;whiteSpace=wrap;html=1;" vertex="1" parent="1">
          <mxGeometry x="1110" y="364" width="56" height="38" as="geometry" />
        </mxCell>
        <mxCell id="c3nKSRqgcQVMaMpkJJOA-137" value="&lt;div&gt;registra&lt;/div&gt;&lt;div&gt;en&lt;br&gt;&lt;/div&gt;" style="rhombus;whiteSpace=wrap;html=1;" vertex="1" parent="1">
          <mxGeometry x="1011" y="260" width="75" height="60" as="geometry" />
        </mxCell>
        <mxCell id="c3nKSRqgcQVMaMpkJJOA-138" value="" style="endArrow=none;html=1;rounded=0;entryX=0.5;entryY=1;entryDx=0;entryDy=0;exitX=0.75;exitY=0;exitDx=0;exitDy=0;" edge="1" parent="1" source="c3nKSRqgcQVMaMpkJJOA-134" target="c3nKSRqgcQVMaMpkJJOA-137">
          <mxGeometry width="50" height="50" relative="1" as="geometry">
            <mxPoint x="961" y="300" as="sourcePoint" />
            <mxPoint x="1011" y="250" as="targetPoint" />
          </mxGeometry>
        </mxCell>
        <mxCell id="c3nKSRqgcQVMaMpkJJOA-140" value="posee" style="rhombus;whiteSpace=wrap;html=1;" vertex="1" parent="1">
          <mxGeometry x="1411" y="358" width="50" height="50" as="geometry" />
        </mxCell>
        <mxCell id="c3nKSRqgcQVMaMpkJJOA-142" value="" style="endArrow=none;html=1;rounded=0;" edge="1" parent="1" source="c3nKSRqgcQVMaMpkJJOA-140" target="c3nKSRqgcQVMaMpkJJOA-86">
          <mxGeometry width="50" height="50" relative="1" as="geometry">
            <mxPoint x="1573" y="373" as="sourcePoint" />
            <mxPoint x="1573" y="190" as="targetPoint" />
          </mxGeometry>
        </mxCell>
        <mxCell id="c3nKSRqgcQVMaMpkJJOA-143" value="" style="endArrow=none;html=1;rounded=0;" edge="1" parent="1" source="c3nKSRqgcQVMaMpkJJOA-140" target="c3nKSRqgcQVMaMpkJJOA-81">
          <mxGeometry width="50" height="50" relative="1" as="geometry">
            <mxPoint x="1471" y="395" as="sourcePoint" />
            <mxPoint x="1523" y="394" as="targetPoint" />
          </mxGeometry>
        </mxCell>
        <mxCell id="c3nKSRqgcQVMaMpkJJOA-144" value="" style="endArrow=none;html=1;rounded=0;" edge="1" parent="1" source="c3nKSRqgcQVMaMpkJJOA-137" target="c3nKSRqgcQVMaMpkJJOA-74">
          <mxGeometry width="50" height="50" relative="1" as="geometry">
            <mxPoint x="1233" y="190" as="sourcePoint" />
            <mxPoint x="1233" y="373" as="targetPoint" />
            <Array as="points" />
          </mxGeometry>
        </mxCell>
        <mxCell id="c3nKSRqgcQVMaMpkJJOA-145" value="" style="endArrow=none;html=1;rounded=0;entryX=0;entryY=0.5;entryDx=0;entryDy=0;" edge="1" parent="1" source="c3nKSRqgcQVMaMpkJJOA-146" target="c3nKSRqgcQVMaMpkJJOA-134">
          <mxGeometry width="50" height="50" relative="1" as="geometry">
            <mxPoint x="1005" y="50" as="sourcePoint" />
            <mxPoint x="1226" y="373" as="targetPoint" />
            <Array as="points">
              <mxPoint x="981" y="382" />
            </Array>
          </mxGeometry>
        </mxCell>
        <mxCell id="c3nKSRqgcQVMaMpkJJOA-146" value="&lt;div&gt;loguean&lt;/div&gt;&lt;div&gt;desloguean&lt;/div&gt;&lt;div&gt;en&lt;br&gt;&lt;/div&gt;" style="rhombus;whiteSpace=wrap;html=1;" vertex="1" parent="1">
          <mxGeometry x="937" y="47" width="85" height="85" as="geometry" />
        </mxCell>
        <mxCell id="c3nKSRqgcQVMaMpkJJOA-147" value="" style="endArrow=none;html=1;rounded=0;entryX=1;entryY=0.5;entryDx=0;entryDy=0;" edge="1" parent="1" source="c3nKSRqgcQVMaMpkJJOA-77" target="c3nKSRqgcQVMaMpkJJOA-146">
          <mxGeometry width="50" height="50" relative="1" as="geometry">
            <mxPoint x="1276" y="100" as="sourcePoint" />
            <mxPoint x="1573" y="120" as="targetPoint" />
            <Array as="points" />
          </mxGeometry>
        </mxCell>
        <mxCell id="c3nKSRqgcQVMaMpkJJOA-148" value="" style="endArrow=none;html=1;rounded=0;exitX=0.5;exitY=0;exitDx=0;exitDy=0;entryX=0.5;entryY=0;entryDx=0;entryDy=0;" edge="1" parent="1" source="c3nKSRqgcQVMaMpkJJOA-79" target="c3nKSRqgcQVMaMpkJJOA-146">
          <mxGeometry width="50" height="50" relative="1" as="geometry">
            <mxPoint x="1276" y="100" as="sourcePoint" />
            <mxPoint x="1573" y="120" as="targetPoint" />
            <Array as="points">
              <mxPoint x="1386" y="20" />
              <mxPoint x="980" y="20" />
            </Array>
          </mxGeometry>
        </mxCell>
      </root>
    </mxGraphModel>
  </diagram>
</mxfile>
